<?xml version="1.0" encoding="UTF-8" standalone="no"?><!DOCTYPE svg PUBLIC "-//W3C//DTD SVG 1.1//EN" "http://www.w3.org/Graphics/SVG/1.1/DTD/svg11.dtd"><svg width="100%" height="100%" viewBox="0 0 123 123" version="1.1" xmlns="http://www.w3.org/2000/svg" xmlns:xlink="http://www.w3.org/1999/xlink" xml:space="preserve" xmlns:serif="http://www.serif.com/" style="fill-rule:evenodd;clip-rule:evenodd;stroke-linejoin:round;stroke-miterlimit:2;"><rect id="Artboard1" x="0" y="0" width="122.88" height="122.88" style="fill:none;"/><g id="Artboard11" serif:id="Artboard1"><path d="M48.976,73.319l10.916,-15.757l4.665,16.55l-15.581,-0.793Z" style="fill:#00794a;"/><g><path d="M21.817,58.077c-0.143,0.006 -0.288,0.009 -0.433,0.009c-2.721,-0 -7.696,-0.794 -10.135,-1.829c-7.026,-2.982 -10.903,-11.292 -10.553,-18.365c0.481,-9.706 3.972,-18.648 11.391,-25.226c12.979,-11.507 32.575,-11.465 48.457,-8.958c0.045,0.007 0.089,0.015 0.134,0.022c4.561,0.784 10.962,1.17 15.569,1.457c7.724,0.481 15.839,1.089 23.174,-1.873c3.133,-1.266 6.693,-0.863 9.464,1.069c2.772,1.932 4.38,5.134 4.276,8.511c-0.089,2.911 -0.509,5.764 -1.444,8.537c-0.502,1.489 -1.161,2.939 -1.991,4.273c-3.511,5.647 -8.54,8.289 -14.24,9.333c-3.48,0.637 -7.275,0.521 -10.698,0.625c-7.657,0.231 -15.395,-0.151 -23.032,-1.149l-17.271,80.351c-0.991,4.608 -5.064,7.898 -9.777,7.898l-14.4,0c-3.021,0 -5.879,-1.365 -7.778,-3.714c-1.898,-2.349 -2.633,-5.431 -1.999,-8.384l11.286,-52.587Zm18.167,-36.991l-19.676,91.676l14.4,0l19.276,-89.676c9.99,2.032 20.323,2.888 30.502,2.58c5.884,-0.178 13.064,0.683 16.749,-5.243c0.423,-0.681 0.749,-1.426 1.006,-2.187c0.618,-1.833 0.866,-3.725 0.925,-5.65c-8.727,3.524 -18.352,3.154 -27.541,2.581c-4.925,-0.307 -11.766,-0.743 -16.641,-1.581c-13.147,-2.076 -29.519,-2.963 -40.262,6.562c-5.343,4.737 -7.692,11.249 -8.038,18.238c-0.161,3.257 1.237,7.293 4.472,8.665c1.495,0.635 4.56,1.035 6.228,1.035c0,-0.597 -0.522,-1.08 -0.7,-1.65c-0.628,-2.018 -0.747,-3.038 -0.7,-5.15c0.092,-4.089 0.322,-8.549 2.322,-12.24c3.133,-5.783 10.318,-7.96 16.478,-7.96l1.2,-0Z" style="fill:#00794a;"/><path d="M39.984,21.086l-1.2,-0c-6.16,-0 -13.345,2.177 -16.478,7.96c-2,3.691 -2.23,8.151 -2.322,12.24c-0.047,2.112 0.072,3.132 0.7,5.15c0.178,0.57 0.7,1.053 0.7,1.65c-1.668,-0 -4.733,-0.4 -6.228,-1.035c-3.235,-1.372 -4.633,-5.408 -4.472,-8.665c0.346,-6.989 2.695,-13.501 8.038,-18.238c10.743,-9.525 27.115,-8.638 40.262,-6.562c4.875,0.838 11.716,1.274 16.641,1.581c9.189,0.573 18.814,0.943 27.541,-2.581c-0.059,1.925 -0.307,3.817 -0.925,5.65c-0.257,0.761 -0.583,1.506 -1.006,2.187c-3.685,5.926 -10.865,5.065 -16.749,5.243c-10.179,0.308 -20.512,-0.548 -30.502,-2.58l-19.276,89.676l-14.4,0l19.676,-91.676Z" style="fill:#fff;fill-rule:nonzero;"/><path d="M37.502,23.118c-5.166,0.261 -10.868,2.138 -13.438,6.881c-1.849,3.414 -1.996,7.55 -2.08,11.332c-0.042,1.849 0.06,2.743 0.61,4.511c0.072,0.232 0.256,0.429 0.37,0.648c0.262,0.505 0.42,1.034 0.42,1.596l0,2l-2,-0c-1.878,-0 -5.326,-0.479 -7.01,-1.194c-3.992,-1.694 -5.886,-6.586 -5.687,-10.605c0.372,-7.532 2.95,-14.53 8.708,-19.635c11.19,-9.922 28.208,-9.204 41.915,-7.039l0.013,0.002c4.812,0.827 11.565,1.253 16.426,1.556c8.896,0.555 18.22,0.972 26.668,-2.44l2.842,-1.147l-0.094,3.063c-0.065,2.123 -0.348,4.207 -1.029,6.228c-0.306,0.906 -0.698,1.792 -1.203,2.605c-2.176,3.499 -5.355,5.041 -8.888,5.688c-3.089,0.565 -6.461,0.405 -9.499,0.497c-9.674,0.293 -19.485,-0.451 -29.019,-2.24l-19.203,89.337l-18.491,0l19.669,-91.644Zm2.482,-2.032l-19.676,91.676l14.4,0l19.276,-89.676c9.99,2.032 20.323,2.888 30.502,2.58c5.884,-0.178 13.064,0.683 16.749,-5.243c0.423,-0.681 0.749,-1.426 1.006,-2.187c0.618,-1.833 0.866,-3.725 0.925,-5.65c-8.727,3.524 -18.352,3.154 -27.541,2.581c-4.925,-0.307 -11.766,-0.743 -16.641,-1.581c-13.147,-2.076 -29.519,-2.963 -40.262,6.562c-5.343,4.737 -7.692,11.249 -8.038,18.238c-0.161,3.257 1.237,7.293 4.472,8.665c1.495,0.635 4.56,1.035 6.228,1.035c0,-0.597 -0.522,-1.08 -0.7,-1.65c-0.628,-2.018 -0.747,-3.038 -0.7,-5.15c0.092,-4.089 0.322,-8.549 2.322,-12.24c3.133,-5.783 10.318,-7.96 16.478,-7.96l1.2,-0Z" style="fill:#fff;"/></g><g><path d="M57.994,70.475c-0.393,-0.587 -0.759,-1.156 -1.099,-1.706c-2.823,-4.567 -4.244,-9.567 -4.244,-15.007c0,-5.593 1.584,-10.614 4.703,-15.078c2.897,-4.145 6.845,-7.473 11.939,-9.87c4.663,-2.194 9.907,-3.352 15.758,-3.352c8.009,0 14.322,2.172 19.118,5.929c5.739,4.497 8.682,10.497 8.682,18.071c0,5.421 -1.61,9.728 -4.32,13.084c-2.122,2.627 -4.651,4.443 -7.592,5.433c2.107,2.687 3.931,5.77 5.442,9.267c1.696,3.925 2.57,8.161 2.57,12.716c0,6.342 -1.773,12.086 -5.291,17.239c-3.321,4.864 -7.821,8.743 -13.574,11.549c-5.42,2.644 -11.425,4.012 -18.035,4.012c-5.782,0 -10.86,-1.09 -15.266,-3.109c-5.035,-2.307 -8.86,-5.6 -11.587,-9.743c-2.779,-4.222 -4.247,-9.089 -4.247,-14.648c0,-4.613 1.016,-8.796 2.956,-12.57c2.051,-3.991 4.855,-7.122 8.347,-9.45c1.823,-1.215 3.736,-2.138 5.74,-2.767Zm14.057,42.287c5,0 9.55,-1 13.65,-3c4.1,-2 7.334,-4.733 9.7,-8.2c2.367,-3.466 3.55,-7.333 3.55,-11.6c0,-3.133 -0.583,-6.05 -1.75,-8.75c-1.166,-2.7 -2.566,-5.083 -4.2,-7.15c-1.633,-2.066 -3.783,-4.533 -6.45,-7.4c-3.266,-3.6 -5.666,-6.55 -7.2,-8.85c-1.533,-2.3 -2.3,-4.783 -2.3,-7.45c0,-2.933 0.85,-5.35 2.55,-7.25c1.7,-1.9 3.884,-2.85 6.55,-2.85c2.2,0 3.934,0.634 5.2,1.9c1.267,1.267 1.9,2.967 1.9,5.1c0,1.667 -0.366,3.267 -1.1,4.8c-0.733,1.534 -1.733,2.767 -3,3.7c1.534,2.067 3.567,3.1 6.1,3.1c2.267,0 4.1,-0.866 5.5,-2.6c1.4,-1.733 2.1,-4 2.1,-6.8c0,-4.266 -1.616,-7.666 -4.85,-10.2c-3.233,-2.533 -7.55,-3.8 -12.95,-3.8c-4.266,0 -8.1,0.8 -11.5,2.4c-3.4,1.6 -6.066,3.784 -8,6.55c-1.933,2.767 -2.9,5.884 -2.9,9.35c0,3.534 0.917,6.784 2.75,9.75c1.834,2.967 4.55,6.517 8.15,10.65c3.467,4 6.067,7.4 7.8,10.2c1.734,2.8 2.6,5.767 2.6,8.9c0,3.6 -1.15,6.584 -3.45,8.95c-2.3,2.367 -5.216,3.55 -8.75,3.55c-2.866,0 -5.166,-0.866 -6.9,-2.6c-1.733,-1.733 -2.6,-4.033 -2.6,-6.9c0,-3.133 1.034,-5.616 3.1,-7.45c2.067,-1.833 4.834,-2.75 8.3,-2.75c-0.4,-2.066 -1.4,-3.683 -3,-4.85c-1.6,-1.166 -3.566,-1.75 -5.9,-1.75c-2.533,0 -4.85,0.7 -6.95,2.1c-2.1,1.4 -3.766,3.3 -5,5.7c-1.233,2.4 -1.85,5.067 -1.85,8c0,3.467 0.867,6.517 2.6,9.15c1.734,2.634 4.2,4.684 7.4,6.15c3.2,1.467 6.9,2.2 11.1,2.2Z" style="fill:#00794a;"/><path d="M72.051,112.762c-4.2,0 -7.9,-0.733 -11.1,-2.2c-3.2,-1.466 -5.666,-3.516 -7.4,-6.15c-1.733,-2.633 -2.6,-5.683 -2.6,-9.15c0,-2.933 0.617,-5.6 1.85,-8c1.234,-2.4 2.9,-4.3 5,-5.7c2.1,-1.4 4.417,-2.1 6.95,-2.1c2.334,0 4.3,0.584 5.9,1.75c1.6,1.167 2.6,2.784 3,4.85c-3.466,0 -6.233,0.917 -8.3,2.75c-2.066,1.834 -3.1,4.317 -3.1,7.45c0,2.867 0.867,5.167 2.6,6.9c1.734,1.734 4.034,2.6 6.9,2.6c3.534,0 6.45,-1.183 8.75,-3.55c2.3,-2.366 3.45,-5.35 3.45,-8.95c0,-3.133 -0.866,-6.1 -2.6,-8.9c-1.733,-2.8 -4.333,-6.2 -7.8,-10.2c-3.6,-4.133 -6.316,-7.683 -8.15,-10.65c-1.833,-2.966 -2.75,-6.216 -2.75,-9.75c0,-3.466 0.967,-6.583 2.9,-9.35c1.934,-2.766 4.6,-4.95 8,-6.55c3.4,-1.6 7.234,-2.4 11.5,-2.4c5.4,0 9.717,1.267 12.95,3.8c3.234,2.534 4.85,5.934 4.85,10.2c0,2.8 -0.7,5.067 -2.1,6.8c-1.4,1.734 -3.233,2.6 -5.5,2.6c-2.533,0 -4.566,-1.033 -6.1,-3.1c1.267,-0.933 2.267,-2.166 3,-3.7c0.734,-1.533 1.1,-3.133 1.1,-4.8c0,-2.133 -0.633,-3.833 -1.9,-5.1c-1.266,-1.266 -3,-1.9 -5.2,-1.9c-2.666,0 -4.85,0.95 -6.55,2.85c-1.7,1.9 -2.55,4.317 -2.55,7.25c0,2.667 0.767,5.15 2.3,7.45c1.534,2.3 3.934,5.25 7.2,8.85c2.667,2.867 4.817,5.334 6.45,7.4c1.634,2.067 3.034,4.45 4.2,7.15c1.167,2.7 1.75,5.617 1.75,8.75c0,4.267 -1.183,8.134 -3.55,11.6c-2.366,3.467 -5.6,6.2 -9.7,8.2c-4.1,2 -8.65,3 -13.65,3Z" style="fill:#fff;fill-rule:nonzero;"/><path d="M72.051,114.762c-4.516,0 -8.492,-0.804 -11.933,-2.381c-3.567,-1.635 -6.305,-3.934 -8.237,-6.869c-1.943,-2.951 -2.93,-6.365 -2.93,-10.25c0,-3.269 0.697,-6.239 2.071,-8.914c1.397,-2.718 3.291,-4.864 5.67,-6.45c2.435,-1.623 5.122,-2.436 8.059,-2.436c2.803,0 5.157,0.733 7.079,2.134c2.01,1.467 3.282,3.489 3.785,6.086l0.461,2.38l-2.425,0c-2.904,0 -5.241,0.711 -6.972,2.247c-1.647,1.46 -2.428,3.457 -2.428,5.953c0,2.272 0.641,4.112 2.015,5.486c1.373,1.374 3.213,2.014 5.485,2.014c2.951,0 5.395,-0.967 7.316,-2.943c1.939,-1.996 2.884,-4.521 2.884,-7.557c0,-2.763 -0.771,-5.377 -2.3,-7.847c-1.69,-2.73 -4.23,-6.041 -7.61,-9.942c-3.686,-4.232 -6.464,-7.871 -8.341,-10.909c-2.031,-3.287 -3.049,-6.887 -3.049,-10.802c0,-3.892 1.09,-7.389 3.261,-10.495c2.126,-3.043 5.049,-5.455 8.788,-7.214c3.652,-1.719 7.768,-2.591 12.351,-2.591c5.922,0 10.638,1.448 14.184,4.226c3.734,2.926 5.616,6.846 5.616,11.774c0,3.324 -0.882,5.999 -2.544,8.057c-1.797,2.225 -4.147,3.343 -7.056,3.343c-3.199,0 -5.77,-1.298 -7.706,-3.908l-1.196,-1.611l1.616,-1.191c1.009,-0.743 1.798,-1.731 2.382,-2.953c0.602,-1.257 0.904,-2.569 0.904,-3.937c0,-1.533 -0.403,-2.775 -1.314,-3.685c-0.917,-0.917 -2.193,-1.315 -3.786,-1.315c-2.057,0 -3.748,0.718 -5.059,2.184c-1.385,1.547 -2.041,3.528 -2.041,5.916c0,2.271 0.659,4.383 1.964,6.341c1.493,2.238 3.832,5.104 7.009,8.607c2.707,2.909 4.888,5.414 6.546,7.512c1.736,2.197 3.227,4.728 4.467,7.597c1.273,2.945 1.914,6.126 1.914,9.543c0,4.682 -1.301,8.924 -3.898,12.728c-2.557,3.746 -6.044,6.709 -10.475,8.87c-4.364,2.129 -9.205,3.202 -14.527,3.202Zm0,-2c5,0 9.55,-1 13.65,-3c4.1,-2 7.334,-4.733 9.7,-8.2c2.367,-3.466 3.55,-7.333 3.55,-11.6c0,-3.133 -0.583,-6.05 -1.75,-8.75c-1.166,-2.7 -2.566,-5.083 -4.2,-7.15c-1.633,-2.066 -3.783,-4.533 -6.45,-7.4c-3.266,-3.6 -5.666,-6.55 -7.2,-8.85c-1.533,-2.3 -2.3,-4.783 -2.3,-7.45c0,-2.933 0.85,-5.35 2.55,-7.25c1.7,-1.9 3.884,-2.85 6.55,-2.85c2.2,0 3.934,0.634 5.2,1.9c1.267,1.267 1.9,2.967 1.9,5.1c0,1.667 -0.366,3.267 -1.1,4.8c-0.733,1.534 -1.733,2.767 -3,3.7c1.534,2.067 3.567,3.1 6.1,3.1c2.267,0 4.1,-0.866 5.5,-2.6c1.4,-1.733 2.1,-4 2.1,-6.8c0,-4.266 -1.616,-7.666 -4.85,-10.2c-3.233,-2.533 -7.55,-3.8 -12.95,-3.8c-4.266,0 -8.1,0.8 -11.5,2.4c-3.4,1.6 -6.066,3.784 -8,6.55c-1.933,2.767 -2.9,5.884 -2.9,9.35c0,3.534 0.917,6.784 2.75,9.75c1.834,2.967 4.55,6.517 8.15,10.65c3.467,4 6.067,7.4 7.8,10.2c1.734,2.8 2.6,5.767 2.6,8.9c0,3.6 -1.15,6.584 -3.45,8.95c-2.3,2.367 -5.216,3.55 -8.75,3.55c-2.866,0 -5.166,-0.866 -6.9,-2.6c-1.733,-1.733 -2.6,-4.033 -2.6,-6.9c0,-3.133 1.034,-5.616 3.1,-7.45c2.067,-1.833 4.834,-2.75 8.3,-2.75c-0.4,-2.066 -1.4,-3.683 -3,-4.85c-1.6,-1.166 -3.566,-1.75 -5.9,-1.75c-2.533,0 -4.85,0.7 -6.95,2.1c-2.1,1.4 -3.766,3.3 -5,5.7c-1.233,2.4 -1.85,5.067 -1.85,8c0,3.467 0.867,6.517 2.6,9.15c1.734,2.634 4.2,4.684 7.4,6.15c3.2,1.467 6.9,2.2 11.1,2.2Z" style="fill:#fff;"/></g></g></svg>